<svg height="512pt" viewBox="-31 0 512 512.00025" width="512pt" xmlns="http://www.w3.org/2000/svg"><path d="m135.109375 120.683594c67.144531 0 135.109375-20.628906 135.109375-60.050782 0-80.84375-270.21875-80.84375-270.21875 0 0 39.421876 67.964844 60.050782 135.109375 60.050782zm0 0"/><path d="m0 296.785156c0 52.039063 84.347656 64.09375 135.109375 64.09375 5.421875 0 10.875-.332031 16.324219-.59375.988281-10.371094 2.824218-20.441406 5.648437-30.160156-7.378906.441406-14.738281.730469-21.972656.730469-48.714844-.003907-102.546875-9.726563-135.109375-34.070313zm0 0"/><path d="m135.109375 270.804688c-48.714844 0-102.546875-9.722657-135.109375-34.070313 0 52.042969 84.347656 64.09375 135.109375 64.09375 11.4375 0 22.925781-.800781 34.261719-1.980469 6.355468-11.957031 14.4375-22.742187 23.421875-32.730468-18.972657 3.21875-38.722657 4.6875-57.683594 4.6875zm0 0"/><path d="m135.109375 240.78125c51.113281 0 135.109375-12.167969 135.109375-64.09375-32.558594 24.34375-86.390625 34.066406-135.109375 34.066406-48.714844 0-102.546875-9.722656-135.109375-34.066406 0 52.039062 84.347656 64.09375 135.109375 64.09375zm0 0"/><path d="m135.109375 390.902344c-48.714844 0-102.546875-9.722656-135.109375-34.070313 0 51.152344 84.289062 64.09375 135.109375 64.09375 7.175781 0 14.113281-.640625 21.132813-1.089843-2.613282-9.445313-4.128907-19.292969-5.070313-29.3125-5.390625.234374-10.761719.378906-16.0625.378906zm0 0"/><path d="m135.109375 180.730469c51.113281 0 135.109375-12.167969 135.109375-64.09375-32.558594 24.347656-86.390625 34.070312-135.109375 34.070312-48.714844 0-102.546875-9.722656-135.109375-34.070312 0 52.042969 84.347656 64.09375 135.109375 64.09375zm0 0"/><path d="m315.257812 240.78125c-74.503906 0-135.109374 60.605469-135.109374 135.109375s60.605468 136.109375 135.109374 136.109375c74.503907 0 135.109376-61.605469 135.109376-136.109375s-60.605469-135.109375-135.109376-135.109375zm15.011719 207.402344v16.578125c0 8.296875-6.714843 15.011719-15.011719 15.011719-8.300781 0-15.015624-6.714844-15.015624-15.011719v-16.742188c-9.902344-3.550781-18.582032-10.21875-23.984376-19.570312-4.164062-7.1875-1.699218-16.363281 5.46875-20.511719 7.199219-4.191406 16.375-1.730469 20.511719 5.46875 2.683594 4.648438 7.667969 7.519531 13.019531 7.519531 8.28125 0 15.011719-6.726562 15.011719-15.011719 0-8.28125-6.730469-15.011718-15.011719-15.011718-24.835937 0-45.039062-20.203125-45.039062-45.035156 0-19.546876 12.589844-36.054688 30.023438-42.273438v-17.175781c0-8.296875 6.714843-15.011719 15.015624-15.011719 8.296876 0 15.011719 6.714844 15.011719 15.011719v17.34375c9.90625 3.546875 18.582031 10.21875 23.984375 19.570312 4.164063 7.183594 1.699219 16.363281-5.46875 20.511719-7.230468 4.164062-16.40625 1.699219-20.511718-5.46875-2.683594-4.648438-7.664063-7.523438-13.015626-7.523438-8.285156 0-15.015624 6.730469-15.015624 15.015626 0 8.28125 6.730468 15.011718 15.015624 15.011718 24.832032 0 45.035157 20.199219 45.035157 45.035156 0 19.546876-12.585938 36.054688-30.023438 42.269532zm0 0"/></svg>