<svg height="512pt" viewBox="0 -54 512 512" width="512pt" xmlns="http://www.w3.org/2000/svg"><path d="m496.851562 84.953125h-25.15625v-15.933594c0-8.363281-6.785156-15.144531-15.148437-15.144531h-33.558594v-38.726562c0-8.367188-6.78125-15.148438-15.144531-15.148438h-57.929688c-8.367187 0-15.148437 6.78125-15.148437 15.148438v38.726562h-157.535156v-38.726562c0-8.367188-6.785157-15.148438-15.148438-15.148438h-57.929687c-8.367188 0-15.148438 6.78125-15.148438 15.148438v38.726562h-33.550781c-8.363281 0-15.148437 6.78125-15.148437 15.144531v15.933594h-25.15625c-8.367188 0-15.148438 6.78125-15.148438 15.148437v50.964844c0 8.367188 6.78125 15.148438 15.148438 15.148438h20.675781v222.757812c0 8.367188 6.78125 15.148438 15.148437 15.148438h410.054688c8.367187 0 15.148437-6.78125 15.148437-15.148438v-222.757812h20.675781c8.367188 0 15.148438-6.78125 15.148438-15.148438v-50.964844c0-8.367187-6.78125-15.148437-15.148438-15.148437zm-131.792968-54.65625h27.636718v23.578125h-27.636718zm-245.757813 0h27.632813v23.578125h-27.632813zm326.578125 343.53125h-379.757812v-207.613281h379.757812zm35.824219-237.910156h-451.40625v-20.667969h25.15625c8.367187 0 15.148437-6.78125 15.148437-15.148438v-15.933593h370.796876v15.933593c0 8.367188 6.78125 15.148438 15.148437 15.148438h25.15625zm0 0"/><path d="m120.0625 345.921875h271.875c8.367188 0 15.148438-6.78125 15.148438-15.148437v-121.503907c0-8.367187-6.78125-15.148437-15.148438-15.148437h-271.875c-8.367188 0-15.148438 6.78125-15.148438 15.148437v121.503907c0 8.367187 6.78125 15.148437 15.148438 15.148437zm15.148438-121.507813h241.578124v91.210938h-241.578124zm0 0"/></svg>