<?xml version="1.0"?>
<svg xmlns="http://www.w3.org/2000/svg" id="Layer_1" data-name="Layer 1" viewBox="0 0 512 512" width="512" height="512"><title>Canister </title><polygon points="131.424 150.712 139.433 159.293 161.225 138.104 153.187 129.493 131.424 150.712"/><rect x="249" y="280" width="34" height="34"/><polygon points="153.642 109.496 138.417 94.271 98.835 132.866 114.06 148.09 153.642 109.496"/><path d="M319,244H213V350H319Zm-22,77a7,7,0,0,1-7,7H242a7,7,0,0,1-7-7V273a7,7,0,0,1,7-7h48a7,7,0,0,1,7,7Z"/><path d="M116,209.2V406.75A43.355,43.355,0,0,0,159.315,450H372.877A43.19,43.19,0,0,0,416,406.75V80.125A18.037,18.037,0,0,0,398,62H267.656C257.662,62,250,70.131,250,80.125v32.663A7.6,7.6,0,0,1,242.531,120H207.5a17.934,17.934,0,0,0-12.6,4.987L121.576,196.2A18.142,18.142,0,0,0,116,209.2ZM273,97.712A19.9,19.9,0,0,1,292.781,78h80.1a6.924,6.924,0,0,1,7,6.911A46.154,46.154,0,0,1,333.7,131h-53.48c-3.866,0-7.219-2.805-7.219-6.671ZM162.019,202.418a7,7,0,1,1,9.962-9.836L208.926,230H323.1l37.449-37.45a7,7,0,0,1,9.9,9.9L333,239.9V354.074l37.418,36.945a7,7,0,1,1-9.836,9.962L323.127,364H208.9L171.95,400.95a7,7,0,0,1-9.9-9.9L199,354.1V239.873Z"/><path d="M365.111,92h-72.33A5.889,5.889,0,0,0,287,97.712V117h46.7C349.039,117,361.906,107,365.111,92Z"/></svg>
